HIERARCHY
ROOT Hips
{
	OFFSET -3.958830 18.904000 13.208200
	CHANNELS 6 Xposition Yposition Zposition Zrotation Yrotation Xrotation 
	JOINT LHipJoint
	{
		OFFSET 0.000000 0.000000 0.000000
		CHANNELS 3 Zrotation Yrotation Xrotation
		JOINT LeftUpLeg
		{
			OFFSET 1.800000 -1.400000 0.085000
			CHANNELS 3 Zrotation Yrotation Xrotation
			JOINT LeftLeg
			{
				OFFSET 2.215000 -6.000000 0.000000
				CHANNELS 3 Zrotation Yrotation Xrotation
				JOINT LeftFoot
				{
					OFFSET 2.500000 -6.900000 0.000000
					CHANNELS 3 Zrotation Yrotation Xrotation
					JOINT LeftToeBase
					{
						OFFSET 0.200000 -0.500000 1.950000
						CHANNELS 3 Zrotation Yrotation Xrotation
						End Site
						{
							OFFSET 0.000000 0.000000 0.000000
						}
					}
				}
			}
		}
	}
	JOINT RHipJoint
	{
		OFFSET 0.000000 0.000000 0.000000
		CHANNELS 3 Zrotation Yrotation Xrotation
		JOINT RightUpLeg
		{
			OFFSET -1.800000 -1.400000 0.085000
			CHANNELS 3 Zrotation Yrotation Xrotation
			JOINT RightLeg
			{
				OFFSET -2.215000 -6.000000 0.000000
				CHANNELS 3 Zrotation Yrotation Xrotation
				JOINT RightFoot
				{
					OFFSET -2.500000 -6.900000 0.000000
					CHANNELS 3 Zrotation Yrotation Xrotation
					JOINT RightToeBase
					{
						OFFSET -0.200000 -0.500000 1.950000
						CHANNELS 3 Zrotation Yrotation Xrotation
						End Site
						{
							OFFSET 0.000000 0.000000 0.000000
						}
					}
				}
			}
		}
	}
	JOINT LowerBack
	{
		OFFSET 0.000000 0.000000 0.000000
		CHANNELS 3 Zrotation Yrotation Xrotation
		JOINT Spine
		{
			OFFSET -0.087000 1.940000 -0.288900
			CHANNELS 3 Zrotation Yrotation Xrotation
			JOINT Spine1
			{
				OFFSET 0.000000 1.950000 0.060000
				CHANNELS 3 Zrotation Yrotation Xrotation
				JOINT Neck
				{
					OFFSET 0.000000 0.000000 0.000000
					CHANNELS 3 Zrotation Yrotation Xrotation
					JOINT Neck1
					{
						OFFSET 0.000000 1.600000 0.340000
						CHANNELS 3 Zrotation Yrotation Xrotation
						JOINT Head
						{
							OFFSET 0.000000 1.667000 -0.240000
							CHANNELS 3 Zrotation Yrotation Xrotation
							End Site
							{
								OFFSET 0.000000 0.000000 0.000000
							}
						}
					}
				}
				JOINT LeftShoulder
				{
					OFFSET 0.000000 0.000000 0.000000
					CHANNELS 3 Zrotation Yrotation Xrotation
					JOINT LeftArm
					{
						OFFSET 2.700000 1.550000 -0.730000
						CHANNELS 3 Zrotation Yrotation Xrotation
						JOINT LeftForeArm
						{
							OFFSET 5.450000 0.000000 0.000000
							CHANNELS 3 Zrotation Yrotation Xrotation
							JOINT LeftHand
							{
								OFFSET 3.450000 0.000000 0.000000
								CHANNELS 3 Zrotation Yrotation Xrotation
								JOINT LeftHandIndex1
								{
									OFFSET 0.750000 0.000000 0.000000
									CHANNELS 3 Zrotation Yrotation Xrotation
									End Site
									{
										OFFSET 0.000000 0.000000 0.000000
									}
								}
							}
						}
					}
				}
				JOINT RightShoulder
				{
					OFFSET 0.000000 0.000000 0.000000
					CHANNELS 3 Zrotation Yrotation Xrotation
					JOINT RightArm
					{
						OFFSET -2.700000 1.550000 -0.730000
						CHANNELS 3 Zrotation Yrotation Xrotation
						JOINT RightForeArm
						{
							OFFSET -5.450000 0.000000 0.000000
							CHANNELS 3 Zrotation Yrotation Xrotation
							JOINT RightHand
							{
								OFFSET -3.450000 0.000000 0.000000
								CHANNELS 3 Zrotation Yrotation Xrotation
								JOINT RightHandIndex1
								{
									OFFSET -0.750000 0.000000 0.000000
									CHANNELS 3 Zrotation Yrotation Xrotation
									End Site
									{
										OFFSET 0.000000 0.000000 0.000000
									}
								}
							}
						}
					}
				}
			}
		}
	}
}
MOTION
Frames: 7
Frame Time: 0.016667
-2.663060 17.966130 -4.505910 -3.008028 -3.184519 -0.102592 -15.727088 12.939523 2.880816 27.907521 1.100904 -5.444267 -2.155350 5.454709 4.782288 -0.064708 5.478875 2.618657 -0.050120 -0.238100 -0.142370 17.691414 -9.616181 3.642837 -28.222422 4.128670 -23.542536 26.788132 -13.368515 23.090158 -1.026593 -6.438741 1.789441 -0.400590 0.378700 0.624400 -1.872432 -2.182908 -8.382897 -6.647561 4.572477 4.499633 9.323814 2.723927 5.573009 1.818029 0.538249 -22.187862 -4.904484 5.315000 79.277427 -1.461380 3.997650 -2.243140 -5.407341 -26.447198 9.479687 3.868063 -8.009659 -0.601281 7.130785 -36.478999 0.060446 -3.498041 2.716242 0.979600 0.008630 0.550500 0.200440 4.963088 27.572570 13.552599 15.883385 18.637944 0.489399 -14.591873 19.827999 -0.935514 2.237451 -0.703509 -0.067800 0.258900 0.328750 0.087420 
-2.826100 17.966830 -4.466030 -1.922449 -2.474959 -0.397412 -15.738668 13.210994 2.694836 26.339291 1.277115 -6.545465 -1.563717 5.474807 6.623579 -0.140579 5.263733 2.697554 -0.092290 -0.272140 -0.175130 17.634161 -9.851631 3.445429 -27.703042 3.292228 -21.232271 24.478352 -11.872144 20.122721 -0.893913 -5.909635 1.992446 -0.414140 0.416840 0.607580 -1.780682 -2.287288 -8.105587 -9.002859 4.622677 4.017958 10.333375 2.512703 6.457960 1.951733 0.486909 -22.171780 -4.712242 4.915874 78.082676 -2.618000 4.001360 -2.738850 -3.740994 -26.439760 9.419768 5.137330 -8.092810 -0.650732 7.267638 -35.429341 0.101074 -3.531937 2.662266 0.965920 0.033780 0.524200 0.192820 3.064803 27.812023 13.450736 11.850107 19.278661 0.563930 -14.180961 18.458397 -0.616587 2.244458 -0.650206 -0.090170 0.299580 0.360690 0.093470 
-3.031770 17.957580 -4.447940 -1.205318 -1.690914 0.152224 -15.695864 13.581316 2.376118 23.898112 1.315607 -9.301290 0.448808 5.300435 10.417169 -0.298876 4.874588 2.807150 -0.169520 -0.366410 -0.264720 17.601002 -10.102531 3.456068 -26.961305 2.812592 -19.358195 23.655228 -10.917987 17.227889 -0.822894 -5.557104 2.132742 -0.459210 0.491860 0.600720 -1.800381 -2.402607 -7.932052 -10.388346 4.246371 3.638932 11.175393 2.011878 6.172880 1.938775 -0.629622 -23.105676 -7.588918 6.462627 78.271237 -0.123340 2.242980 -2.209020 -1.348368 -26.328143 10.036583 3.958278 -6.850866 -0.979284 11.261066 -34.774928 -1.177623 -3.555595 2.598040 1.006870 0.044530 0.493270 0.179160 0.859907 28.519913 13.412097 6.868777 19.910344 0.681294 -12.112475 17.727053 0.154509 2.230456 -0.535245 -0.134210 0.349560 0.444530 0.103680 
-3.253160 17.921950 -4.405560 -1.746600 -0.925510 0.091802 -15.674454 13.761171 2.103169 22.776805 1.523999 -10.812540 2.516325 5.216959 13.809582 -0.339586 4.794156 2.856828 -0.216130 -0.409420 -0.333330 17.601005 -10.301257 3.378196 -24.809799 2.589698 -16.845014 23.370615 -10.166617 14.733349 -0.775043 -5.378126 2.255083 -0.468200 0.589750 0.617750 -1.847953 -2.317351 -7.630746 -10.266549 4.546145 2.714691 12.047367 2.178944 7.499643 1.667662 -0.106776 -21.882722 -5.268282 5.109282 75.125573 -0.123540 2.111350 -0.925080 0.976483 -25.768683 9.669031 4.836200 -7.518102 -0.937108 12.084615 -36.990001 -1.435803 -3.605217 2.648022 0.945670 0.124240 0.430960 0.210670 -1.102399 27.613103 12.490964 3.056491 20.773259 0.287150 -12.772543 18.351896 0.028444 2.198394 -0.577173 -0.153850 0.363590 0.466980 0.132030 
-3.465100 17.919710 -4.410380 -2.268863 -0.749737 -0.965703 -15.671170 14.096747 1.922575 21.202942 1.574935 -12.102625 5.355774 4.824050 17.412148 -0.421800 4.788286 2.852492 -0.247790 -0.439240 -0.365710 17.564025 -10.485066 3.256728 -22.228549 2.379577 -14.682397 21.960543 -9.515408 13.599920 -0.716391 -5.125705 2.389831 -0.458630 0.642870 0.613510 -1.810598 -2.558274 -7.446269 -9.647239 4.754746 3.959571 12.044550 2.451733 8.822555 1.750818 0.001092 -20.892254 -4.820320 4.752519 72.899418 -0.035280 1.715430 -2.573560 1.792984 -25.045907 9.374658 4.446986 -7.735735 -1.518600 17.099280 -38.230745 -3.349121 -3.672545 2.612745 0.935290 0.161700 0.385300 0.193130 -2.197941 27.090384 11.787801 -0.413695 20.744753 -0.464442 -12.755817 18.624298 0.050893 2.157949 -0.557217 -0.189190 0.400790 0.515150 0.126810 
-3.657880 17.897990 -4.398170 -2.692520 -1.053919 -1.141221 -15.643740 14.272679 1.835074 19.194205 1.403584 -14.012542 7.279175 4.579195 21.634272 -0.493816 4.931696 2.791779 -0.268850 -0.503110 -0.322890 17.565502 -10.677268 3.209340 -20.251559 2.476051 -14.387289 21.177164 -9.604385 14.719504 -0.700767 -5.038418 2.427140 -0.473290 0.640230 0.614650 -1.846522 -2.520065 -7.365024 -8.835020 4.687191 4.785931 11.449802 2.628684 8.518699 2.135101 0.510224 -20.138820 -2.962662 3.818311 71.757151 -1.847650 2.681820 -4.389960 1.464722 -24.764377 9.478481 4.209393 -6.704828 -1.753035 18.848725 -39.233018 -4.095358 -3.702289 2.555985 0.981490 0.163420 0.376060 0.156390 -2.830170 26.649503 10.704315 -1.422068 22.418342 -1.437640 -16.679571 20.705760 -0.863487 2.108045 -0.566140 -0.235830 0.421330 0.544300 0.078240 
-3.831100 17.900670 -4.381970 -3.554144 -5.882846 -2.384034 -15.567219 14.372717 1.754452 18.695471 2.241420 -12.526669 6.679942 5.447040 24.874858 -0.473747 5.469701 2.635465 -0.309990 -0.564470 -0.322880 17.632443 -10.944504 3.112480 -17.813044 3.295256 -15.304835 18.966546 -9.665175 18.563647 -0.625757 -5.021749 2.447816 -0.456680 0.692850 0.587520 -1.950997 -2.157033 -7.265950 -6.023024 6.035721 6.081778 9.840131 4.368722 9.502322 2.681351 0.493989 -18.978540 -2.127374 3.850161 69.341624 -3.915070 4.012570 -3.641690 0.150251 -24.022837 9.576773 3.465987 -3.806989 -2.291111 22.363184 -43.046816 -5.985542 -3.751203 2.515289 0.950380 0.216240 0.305600 0.139800 -2.653730 26.767203 9.464916 -2.082678 24.833085 -2.144109 -19.794256 21.469358 -1.879597 2.093306 -0.619252 -0.303860 0.459660 0.573200 0.052070 
